HIERARCHY
ROOT Hips
{
    OFFSET 0.000000 0.000000 0.000000
    CHANNELS 6 Xposition Yposition Zposition Zrotation Xrotation Yrotation
    JOINT Spine
    {
        OFFSET -0.000000 14.517291 0.000000
        CHANNELS 3 Zrotation Xrotation Yrotation
        JOINT Spine1
        {
            OFFSET -0.000000 37.558300 0.000000
            CHANNELS 3 Zrotation Xrotation Yrotation
            JOINT Neck
            {
                OFFSET -0.000000 37.404057 3.400369
                CHANNELS 3 Zrotation Xrotation Yrotation
                JOINT Head
                {
                    OFFSET -0.000000 24.785618 -3.540803
                    CHANNELS 3 Zrotation Xrotation Yrotation
                    End Site
                    {
                        OFFSET -0.000000 35.408028 0.000000
                    }
                }
            }
            JOINT LeftShoulder
            {
                OFFSET 6.992933 33.973492 -0.192664
                CHANNELS 3 Zrotation Xrotation Yrotation
                JOINT LeftArm
                {
                    OFFSET 21.527611 0.000000 0.000000
                    CHANNELS 3 Zrotation Xrotation Yrotation
                    JOINT LeftForeArm
                    {
                        OFFSET 56.353916 0.000000 0.000000
                        CHANNELS 3 Zrotation Xrotation Yrotation
                        JOINT LeftHand
                        {
                            OFFSET 47.774071 0.000000 0.000000
                            CHANNELS 3 Zrotation Xrotation Yrotation
                            End Site
                            {
                                OFFSET 26.556021 0.000000 0.000000
                            }
                        }
                    }
                }
            }
            JOINT RightShoulder
            {
                OFFSET -7.065357 33.973492 -0.192664
                CHANNELS 3 Zrotation Xrotation Yrotation
                JOINT RightArm
                {
                    OFFSET -21.527611 0.000000 0.000000
                    CHANNELS 3 Zrotation Xrotation Yrotation
                    JOINT RightForeArm
                    {
                        OFFSET -56.353916 0.000000 0.000000
                        CHANNELS 3 Zrotation Xrotation Yrotation
                        JOINT RightHand
                        {
                            OFFSET -47.774071 0.000000 0.000000
                            CHANNELS 3 Zrotation Xrotation Yrotation
                            End Site
                            {
                                OFFSET -26.556021 0.000000 0.000000
                            }
                        }
                    }
                }
            }
        }
    }
    JOINT LeftUpLeg
    {
        OFFSET 17.704014 0.000000 0.000000
        CHANNELS 3 Zrotation Xrotation Yrotation
        JOINT LeftLeg
        {
            OFFSET -0.000000 -81.181816 0.000000
            CHANNELS 3 Zrotation Xrotation Yrotation
            JOINT LeftFoot
            {
                OFFSET -0.000000 -62.821102 0.000000
                CHANNELS 3 Zrotation Xrotation Yrotation
                JOINT LeftToeBase
                {
                    OFFSET -0.000000 -11.507608 26.556021
                    CHANNELS 3 Zrotation Xrotation Yrotation
                    End Site
                    {
                        OFFSET -0.000000 0.000000 7.081605
                    }
                }
            }
        }
    }
    JOINT RightUpLeg
    {
        OFFSET -17.704014 0.000000 0.000000
        CHANNELS 3 Zrotation Xrotation Yrotation
        JOINT RightLeg
        {
            OFFSET -0.000000 -81.181816 0.000000
            CHANNELS 3 Zrotation Xrotation Yrotation
            JOINT RightFoot
            {
                OFFSET -0.000000 -62.821102 0.000000
                CHANNELS 3 Zrotation Xrotation Yrotation
                JOINT RightToeBase
                {
                    OFFSET -0.000000 -11.507608 26.556021
                    CHANNELS 3 Zrotation Xrotation Yrotation
                    End Site
                    {
                        OFFSET -0.000000 0.000000 7.081605
                    }
                }
            }
        }
    }
}
MOTION
Frames:    5
Frame Time:    0.008333
11.298077    155.557114    -76.301468    -11.690588    0.634574    -39.475063    -3.661070    0.319223    5.114377    -5.087730    -0.121454    1.692893    11.023560    2.784477    11.425834    3.823422    -1.506459    11.106852    -0.350175    8.316733    -10.147991    -37.196377    13.444077    -36.522991    30.223839    -43.248417    -49.207344    -19.679367    -26.964485    -32.494041    -5.691543    4.422786    -1.697570    36.510590    12.993272    73.350121    1.867553    -11.179181    94.316025    5.324683    -12.318388    18.138729    31.318653    -12.624562    1.771970    -14.907156    28.488468    -10.967252    -5.923587    -11.888358    43.574654    0.000000    0.000000    0.000000    -2.610297    8.632109    0.372074    5.125887    20.479717    -0.325418    6.712244    -18.313501    -4.694878    0.000000    0.000000    0.000000    
11.293498    155.555862    -76.286484    -11.705882    0.629954    -39.483608    -3.659399    0.323560    5.115883    -5.089831    -0.133053    1.692857    11.012306    2.792991    11.426158    3.818302    -1.502484    11.108522    -0.357263    8.308907    -10.134846    -37.199375    13.479432    -36.499973    30.263420    -43.272705    -49.183167    -19.700712    -26.977680    -32.496155    -5.701520    4.420778    -1.685793    36.520889    12.982499    73.336151    1.864321    -11.158005    94.321564    5.322027    -12.294577    18.135509    31.331503    -12.608202    1.780366    -14.918335    28.505337    -10.952443    -5.912468    -11.898625    43.555908    0.000000    0.000000    0.000000    -2.600466    8.654852    0.359462    5.107081    20.467686    -0.309632    6.734799    -18.307022    -4.683980    0.000000    0.000000    0.000000    
11.290082    155.555649    -76.267128    -11.721539    0.620040    -39.490032    -3.654290    0.340215    5.119147    -5.100908    -0.158061    1.692651    11.014211    2.799324    11.428147    3.805670    -1.487377    11.108540    -0.354337    8.322527    -10.120987    -37.203686    13.483490    -36.491158    30.245699    -43.288124    -49.203617    -19.691338    -27.003502    -32.481113    -5.707440    4.421258    -1.687497    36.532372    12.974607    73.328979    1.865585    -11.137358    94.321083    5.333235    -12.272326    18.159847    31.335258    -12.586833    1.803588    -14.911518    28.521780    -10.954357    -5.906317    -11.907182    43.528397    0.000000    0.000000    0.000000    -2.600609    8.682766    0.361499    5.109307    20.456062    -0.324527    6.728155    -18.298710    -4.667506    0.000000    0.000000    0.000000    
11.287251    155.555008    -76.250465    -11.728367    0.617200    -39.494228    -3.657999    0.335677    5.121794    -5.094909    -0.165416    1.693280    10.981130    2.792424    11.422826    3.835214    -1.463074    11.110214    -0.368088    8.321345    -10.113831    -37.191849    13.510221    -36.476440    30.268528    -43.300972    -49.187775    -19.693466    -27.013111    -32.481415    -5.717975    4.423142    -1.687299    36.543488    12.953652    73.329247    1.886443    -11.110395    94.321930    5.297338    -12.271414    18.197777    31.342474    -12.578399    1.814773    -14.921702    28.537550    -10.957089    -5.892481    -11.916782    43.526337    0.000000    0.000000    0.000000    -2.598668    8.699183    0.339806    5.092721    20.447683    -0.313447    6.748344    -18.293543    -4.647003    0.000000    0.000000    0.000000    
11.286686    155.555222    -76.236000    -11.733953    0.621345    -39.496746    -3.655133    0.330609    5.123559    -5.101400    -0.182060    1.693177    10.981932    2.791233    11.423741    3.834528    -1.437255    11.110023    -0.363366    8.318689    -10.110250    -37.198807    13.517036    -36.453835    30.245955    -43.304787    -49.216240    -19.702703    -27.018490    -32.471912    -5.717167    4.413035    -1.683267    36.546288    12.946384    73.313705    1.885208    -11.102411    94.322250    5.280481    -12.264556    18.200453    31.352360    -12.579432    1.836536    -14.928416    28.556814    -10.946704    -5.884911    -11.919183    43.505116    0.000000    0.000000    0.000000    -2.594661    8.707580    0.340550    5.090210    20.435270    -0.331905    6.755220    -18.278782    -4.630130    0.000000    0.000000    0.000000    
